<?xml version="1.0" standalone="no"?>
<!DOCTYPE svg PUBLIC "-//W3C//DTD SVG 20010904//EN"
 "http://www.w3.org/TR/2001/REC-SVG-20010904/DTD/svg10.dtd">
<svg version="1.0" xmlns="http://www.w3.org/2000/svg"
 width="500.000000pt" height="500.000000pt" viewBox="0 0 500.000000 500.000000"
 preserveAspectRatio="xMidYMid meet">

<g transform="translate(0.000000,500.000000) scale(0.100000,-0.100000)"
fill="#000000" stroke="none">
<path d="M2020 4059 c0 -78 4 -128 9 -124 5 3 12 1 16 -5 3 -5 -1 -10 -10 -10
-9 0 -13 -4 -10 -10 3 -5 5 -10 3 -10 -2 0 -97 9 -212 20 l-209 19 -113 -94
c-107 -90 -156 -143 -119 -129 15 6 19 -4 16 -36 -2 -13 -1 -13 9 0 9 13 12
13 21 -3 6 -9 15 -15 20 -11 5 3 8 0 7 -8 -2 -7 2 -12 8 -11 6 1 10 -9 8 -23
l-2 -24 26 19 c15 10 60 47 100 81 61 51 78 61 105 58 38 -4 37 23 12 -282
-15 -179 -16 -231 -6 -234 9 -3 9 -7 0 -18 -8 -9 -8 -14 -1 -14 6 0 14 5 17
10 3 6 11 10 16 10 6 0 8 -4 5 -9 -3 -5 1 -11 9 -14 9 -4 12 -1 8 9 -5 13 1
14 31 9 31 -6 35 -5 30 9 -5 12 -2 15 10 10 9 -3 13 -10 10 -15 -3 -5 -1 -9 5
-9 6 0 12 15 15 33 5 28 46 462 46 482 0 4 27 5 60 1 l60 -7 0 79 c0 54 4 83
13 91 8 6 17 8 20 4 4 -3 7 3 7 15 0 16 4 20 18 15 15 -6 15 -5 3 10 -8 10 -9
17 -3 17 6 0 18 -10 26 -22 l16 -22 1 29 c0 25 2 27 8 10 5 -11 6 -24 4 -28
-3 -5 4 -4 16 2 11 7 21 19 22 29 0 14 2 14 9 -3 5 -13 9 27 9 108 l1 127 -85
0 -85 0 0 -131z m140 -109 c0 -5 -5 -10 -11 -10 -5 0 -7 5 -4 10 3 6 8 10 11
10 2 0 4 -4 4 -10z"/>
<path d="M2408 4178 c-3 -7 2 -19 10 -27 12 -12 12 -16 1 -25 -15 -12 -22 -49
-8 -40 5 3 9 0 9 -6 0 -6 -7 -13 -15 -16 -14 -6 -13 -8 2 -20 13 -9 51 -13
127 -14 106 0 111 -1 138 -27 l29 -27 -178 -178 c-100 -101 -177 -185 -178
-197 -1 -11 3 -19 9 -18 7 1 10 -12 9 -33 -2 -29 -1 -31 5 -10 5 14 16 26 26
28 13 3 16 0 11 -9 -6 -8 -4 -11 7 -7 14 6 16 2 20 -41 2 -12 8 -17 18 -14 8
3 95 85 192 182 l178 175 43 -42 44 -43 58 66 59 66 -145 145 -144 144 -162 0
c-119 0 -162 -3 -165 -12z"/>
<path d="M3116 4016 c-47 -57 -86 -108 -86 -112 0 -4 7 1 15 12 13 18 14 18 9
-6 -2 -14 -2 -20 2 -13 4 9 11 7 26 -7 11 -10 26 -16 34 -13 9 3 14 -2 14 -13
0 -15 -2 -16 -9 -5 -5 7 -11 9 -14 5 -3 -5 1 -15 9 -22 11 -10 15 -8 24 9 9
16 14 18 25 9 20 -16 34 -5 109 80 l66 75 -58 52 c-31 29 -62 52 -69 53 -7 0
-50 -47 -97 -104z m-11 -106 c3 -5 1 -10 -4 -10 -6 0 -11 5 -11 10 0 6 2 10 4
10 3 0 8 -4 11 -10z"/>
<path d="M3480 3875 c0 -2 8 -11 17 -21 16 -16 16 -16 -6 -9 -15 4 -21 3 -17
-3 3 -5 -6 -17 -19 -26 -14 -9 -23 -21 -20 -26 4 -6 -1 -10 -9 -10 -8 0 -18
-5 -22 -12 -5 -7 -3 -8 7 -3 11 7 12 6 2 -7 -11 -13 0 -26 76 -89 74 -61 89
-80 93 -108 2 -18 0 -34 -6 -36 -6 -2 -121 -13 -256 -25 -135 -12 -248 -24
-252 -27 -5 -2 -8 -12 -8 -21 0 -15 2 -15 10 -2 6 9 10 10 10 3 0 -7 -8 -17
-17 -23 -16 -10 -15 -11 5 -7 17 4 22 1 22 -15 0 -10 -3 -17 -7 -15 -5 3 -7
-9 -6 -26 2 -44 2 -44 14 -27 8 12 9 10 4 -8 -7 -23 -6 -24 47 -18 157 17 449
38 455 32 3 -3 8 -31 11 -62 4 -51 6 -55 26 -50 12 3 48 8 79 12 32 4 60 11
63 16 3 5 -2 101 -12 213 l-17 204 -114 93 c-99 81 -153 117 -153 103z"/>
<path d="M1127 3537 l-58 -52 52 -60 c104 -121 125 -142 142 -142 20 0 23 13
5 21 -7 4 -3 4 9 2 15 -3 20 0 16 10 -3 8 -10 11 -16 7 -6 -3 -7 -1 -3 5 4 7
13 12 21 12 7 0 16 10 20 23 3 12 11 32 17 43 9 19 2 32 -57 103 -37 45 -72
81 -78 81 -7 0 -38 -24 -70 -53z m173 -172 c0 -8 -2 -15 -4 -15 -2 0 -6 7 -10
15 -3 8 -1 15 4 15 6 0 10 -7 10 -15z"/>
<path d="M2410 3531 c0 -6 4 -13 10 -16 6 -3 7 1 4 9 -7 18 -14 21 -14 7z"/>
<path d="M3945 3289 c-160 -30 -150 -25 -130 -56 15 -23 15 -25 2 -20 -11 4
-14 2 -11 -8 3 -8 9 -14 12 -13 21 2 30 -5 34 -27 3 -13 0 -26 -5 -28 -13 -4
0 -27 16 -27 7 0 6 4 -3 10 -8 5 -10 10 -4 10 5 0 15 -5 21 -11 9 -9 38 -7
115 6 57 9 104 18 106 20 1 1 -3 38 -10 81 -10 55 -18 79 -28 81 -8 0 -60 -7
-115 -18z"/>
<path d="M1084 3141 l-170 -120 -23 -142 c-19 -117 -20 -143 -9 -150 10 -7 9
-9 -5 -9 -10 0 -15 -5 -12 -10 3 -6 17 -8 31 -6 14 3 24 0 24 -7 0 -8 3 -8 12
1 7 7 17 8 30 1 10 -5 18 -6 18 -2 0 4 7 -1 15 -11 8 -11 15 -14 15 -7 0 7 4
10 9 7 5 -3 19 48 31 114 21 108 26 123 51 140 l27 20 147 -208 c84 -121 153
-209 162 -209 9 0 18 9 21 19 4 16 6 16 16 4 9 -12 14 -11 31 6 l20 21 -22
-12 c-14 -7 -23 -8 -23 -2 0 5 9 13 20 16 11 3 20 10 20 15 0 4 7 11 16 14 12
5 15 2 10 -9 -3 -9 -2 -13 4 -10 6 3 10 13 10 22 0 13 -126 200 -257 384 l-33
47 50 37 50 37 -51 61 c-28 34 -54 63 -58 65 -3 1 -83 -52 -177 -117z"/>
<path d="M2576 3091 c-16 -17 -16 -19 0 -25 11 -4 15 -2 11 8 -3 7 0 19 6 25
6 6 9 11 6 11 -3 0 -14 -8 -23 -19z"/>
<path d="M2200 2989 c0 -11 5 -17 10 -14 6 3 10 13 10 21 0 8 -4 14 -10 14 -5
0 -10 -9 -10 -21z"/>
<path d="M4114 2935 c5 -15 4 -16 -8 -6 -9 7 -17 8 -20 2 -6 -10 -31 -9 -41 1
-9 8 -45 -3 -45 -14 0 -5 -4 -7 -9 -3 -19 11 -19 -12 0 -120 23 -135 23 -135
0 -164 l-18 -23 -200 140 c-221 154 -243 168 -243 152 0 -5 5 -10 11 -10 5 0
8 -4 5 -9 -3 -5 -15 -7 -26 -4 -15 4 -19 2 -14 -10 4 -12 1 -15 -16 -12 -16 3
-19 1 -12 -8 11 -15 12 -48 0 -41 -4 3 -14 -1 -21 -7 -21 -20 -2 -36 216 -191
108 -77 197 -142 197 -145 0 -2 -13 -24 -30 -48 -16 -24 -30 -46 -30 -49 0
-12 143 -87 150 -80 4 5 58 81 119 169 l113 160 -7 50 c-15 124 -51 279 -64
283 -10 3 -12 0 -7 -13z"/>
<path d="M2900 2920 c0 -17 19 -20 45 -6 l27 14 -36 0 c-20 0 -36 -4 -36 -8z"/>
<path d="M1981 2691 c-10 -7 -10 -10 -1 -16 6 -4 16 -3 22 3 13 13 -4 23 -21
13z"/>
<path d="M3057 2569 c-3 -10 -1 -19 4 -19 5 0 9 5 9 11 0 5 5 7 10 4 6 -3 10
-2 10 3 0 20 -28 20 -33 1z"/>
<path d="M810 2420 c-7 -45 -10 -83 -8 -86 9 -9 241 -45 255 -40 28 11 23 -27
-26 -213 -28 -105 -51 -195 -51 -200 0 -13 149 -269 161 -277 6 -3 22 6 36 20
14 14 30 26 34 26 5 0 9 7 9 16 0 13 3 14 15 4 11 -9 17 -9 28 2 17 17 15 24
-50 139 -46 84 -52 100 -44 123 6 14 15 26 21 26 6 0 121 -29 256 -65 135 -36
248 -65 251 -65 3 0 3 9 0 20 -3 10 -2 19 2 18 21 -2 30 4 24 19 -5 12 -3 14
7 8 9 -5 11 -4 6 3 -4 7 -2 12 4 12 7 0 8 6 1 19 -6 10 -8 21 -5 23 3 3 -1 8
-9 11 -8 3 -13 -3 -14 -14 -1 -11 2 -17 8 -14 5 4 9 -1 9 -9 0 -9 -4 -16 -9
-16 -5 0 -18 -3 -28 -6 -11 -4 -14 -3 -7 3 15 10 21 44 11 61 -5 7 -5 12 0 11
19 -3 33 2 33 12 0 6 -6 9 -14 6 -7 -3 -17 -2 -22 3 -5 4 -113 36 -240 70
l-231 62 14 56 c8 30 11 58 6 62 -4 4 -37 13 -72 19 -76 13 -106 39 -109 93
-2 20 3 40 9 44 8 5 9 3 4 -6 -6 -9 -4 -11 5 -5 10 6 7 12 -11 26 -13 10 -20
21 -16 25 4 4 7 2 7 -4 0 -7 7 -12 16 -12 13 0 13 2 2 13 -10 10 -219 58 -249
57 -4 0 -12 -36 -19 -80z"/>
<path d="M1079 2333 c-13 -17 -13 -17 6 -3 11 8 22 16 24 17 2 2 0 3 -6 3 -6
0 -17 -8 -24 -17z"/>
<path d="M2014 2319 c-3 -6 -1 -16 4 -21 8 -8 11 -5 9 11 -1 24 -3 25 -13 10z"/>
<path d="M3964 2234 c-5 -25 -11 -34 -21 -30 -8 3 -12 2 -8 -3 3 -5 0 -11 -5
-13 -6 -2 -13 -16 -16 -31 -4 -24 -3 -26 10 -15 9 8 10 15 4 19 -6 4 0 12 13
20 21 11 22 10 12 -3 -7 -8 -10 -18 -6 -21 3 -4 1 -13 -5 -20 -7 -8 -8 -18 -4
-22 4 -5 -1 -5 -10 -2 -10 4 -18 5 -18 2 0 -6 200 -125 210 -125 8 0 94 141
88 145 -2 1 -56 32 -120 68 l-117 66 -7 -35z"/>
<path d="M2957 2216 c-3 -8 2 -20 11 -28 15 -11 16 -11 4 4 -10 13 -10 17 0
20 8 3 9 6 1 11 -6 4 -13 0 -16 -7z"/>
<path d="M3487 2160 c-8 -11 -17 -17 -22 -12 -4 4 -5 -1 -2 -11 6 -16 5 -16
-19 -1 -17 12 -24 13 -22 4 2 -7 -3 -15 -11 -18 -8 -3 -11 0 -7 7 4 6 2 9 -7
6 -9 -4 -12 -16 -9 -35 2 -17 8 -27 13 -24 5 3 6 -2 3 -10 -3 -8 20 -109 50
-224 31 -115 56 -214 56 -220 0 -7 -25 -19 -55 -27 -30 -9 -55 -20 -55 -25 0
-4 11 -38 25 -75 18 -47 23 -71 15 -80 -5 -6 -7 -15 -3 -18 3 -4 0 -13 -7 -22
-10 -12 -16 -13 -26 -4 -11 9 -14 5 -14 -22 0 -23 -3 -30 -9 -20 -6 9 -11 10
-15 2 -4 -6 -19 -11 -34 -11 -18 0 -23 -3 -14 -9 7 -4 12 -12 10 -17 -2 -5 12
-55 31 -111 l34 -102 80 30 c45 16 82 29 83 29 5 0 -88 235 -97 246 -6 7 -8
17 -5 22 3 5 95 33 205 63 l200 54 81 140 c44 77 80 146 80 152 0 7 -9 17 -20
23 -11 6 -20 8 -20 5 0 -4 -7 0 -15 9 -9 8 -22 13 -30 10 -8 -4 -15 -1 -15 5
0 17 -37 33 -46 19 -5 -7 -3 -8 7 -3 8 5 3 -3 -11 -16 -14 -14 -47 -64 -74
-111 -41 -71 -55 -88 -79 -94 -17 -3 -32 -2 -36 4 -3 6 -35 119 -71 251 -55
204 -67 239 -82 238 -10 -1 -16 -7 -14 -14 3 -7 -1 -10 -9 -6 -11 4 -12 10 -4
24 13 25 4 24 -14 -1z"/>
<path d="M2280 2039 c0 -5 -5 -7 -12 -3 -7 4 -8 3 -4 -4 4 -6 13 -9 21 -6 8 4
12 10 9 15 -7 12 -14 11 -14 -2z"/>
<path d="M2645 1986 c0 -28 10 -26 18 4 3 11 0 20 -6 20 -7 0 -12 -11 -12 -24z"/>
<path d="M2914 1659 c-5 -8 -2 -10 7 -5 8 4 6 1 -4 -7 -10 -8 -63 -111 -118
-228 -56 -118 -104 -218 -109 -222 -4 -5 -31 3 -59 17 l-51 26 -10 -27 c-6
-16 -20 -52 -32 -81 -11 -29 -19 -54 -17 -56 2 -2 88 -43 191 -91 l186 -87
139 52 c140 52 178 76 148 93 -13 7 -14 12 -4 23 10 12 10 14 0 12 -8 -2 -14
9 -16 26 -9 69 -16 70 -152 21 -54 -20 -107 -34 -118 -31 -53 15 -53 13 54
245 56 122 104 234 107 249 3 18 2 23 -5 13 -5 -9 -14 -10 -22 -5 -8 5 -23 9
-34 9 -28 1 -45 13 -45 33 0 15 2 15 11 2 9 -13 10 -13 6 0 -2 8 -8 15 -13 15
-5 0 -14 4 -21 8 -6 4 -15 2 -19 -4z m86 -85 c0 -8 -5 -12 -10 -9 -6 4 -8 11
-5 16 9 14 15 11 15 -7z"/>
<path d="M3000 1619 c0 -5 5 -7 10 -4 6 3 10 8 10 11 0 2 -4 4 -10 4 -5 0 -10
-5 -10 -11z"/>
<path d="M2011 1499 c-117 -55 -218 -99 -223 -99 -5 0 -18 23 -30 50 -11 28
-24 50 -28 50 -16 0 -145 -79 -143 -87 4 -21 165 -359 176 -370 7 -6 75 -34
152 -61 125 -45 141 -48 149 -34 5 10 14 20 20 24 8 5 7 8 -1 8 -18 0 -16 15
3 34 14 15 14 16 -3 17 -10 0 -13 3 -5 6 6 2 9 10 6 15 -4 6 -3 9 2 5 5 -3 17
0 26 7 15 11 14 14 -10 28 -15 8 -69 30 -120 49 -76 27 -97 39 -109 63 -8 15
-11 32 -6 36 4 4 102 51 216 104 115 54 217 106 228 117 10 10 24 19 29 19 6
0 10 5 10 10 0 6 -3 9 -7 9 -5 -1 -16 -1 -27 0 -16 1 -16 3 -6 17 8 8 9 14 4
13 -21 -4 -34 2 -34 14 0 8 -9 24 -20 37 -13 15 -20 18 -20 9 0 -9 -3 -10 -8
-3 -5 8 -77 -21 -221 -87z"/>
<path d="M1335 1473 l-94 -54 41 -72 c23 -39 42 -73 43 -75 3 -4 196 108 217
125 9 8 15 22 13 31 -2 9 -4 20 -4 23 -1 3 -12 5 -26 4 -14 -2 -23 0 -20 5 2
4 -4 18 -15 30 -11 12 -18 26 -15 29 2 4 -8 7 -21 7 -14 0 -67 -24 -119 -53z"/>
<path d="M3340 1351 c0 -5 5 -13 10 -16 6 -3 10 -2 10 4 0 5 -4 13 -10 16 -5
3 -10 2 -10 -4z"/>
<path d="M3306 1338 c3 -5 10 -6 15 -3 13 9 11 12 -6 12 -8 0 -12 -4 -9 -9z"/>
<path d="M2446 1088 c6 -17 -10 -26 -19 -10 -2 4 -2 2 -1 -5 3 -14 -23 -25
-31 -13 -4 6 -1 10 5 10 6 0 8 5 4 12 -5 8 -11 6 -20 -6 -7 -10 -13 -13 -16
-6 -4 14 -38 -10 -41 -30 -2 -8 -5 -20 -9 -25 -18 -30 -57 -150 -51 -156 10
-9 146 -59 150 -55 2 2 23 57 47 122 33 93 40 120 29 122 -11 3 -11 7 4 18 17
14 17 15 -5 9 -16 -5 -28 -1 -38 12 -13 16 -13 16 -8 1z"/>
</g>
</svg>
